<?xml version="1.0" standalone="no"?>
<!DOCTYPE svg PUBLIC "-//W3C//DTD SVG 20010904//EN"
 "http://www.w3.org/TR/2001/REC-SVG-20010904/DTD/svg10.dtd">
<svg version="1.0" xmlns="http://www.w3.org/2000/svg"
 width="700.000000pt" height="700.000000pt" viewBox="0 0 700.000000 700.000000"
 preserveAspectRatio="xMidYMid meet">
<metadata>
Created by potrace 1.14, written by Peter Selinger 2001-2017
</metadata>
<g transform="translate(0.000000,700.000000) scale(0.100000,-0.100000)"
fill="#000000" stroke="none">
<path d="M3847 6444 c-1 -1 -45 -5 -97 -8 -465 -33 -947 -196 -1376 -466 -352
-222 -690 -546 -947 -910 -114 -161 -277 -449 -351 -620 -66 -153 -162 -411
-181 -490 -2 -8 -20 -78 -40 -155 -20 -77 -38 -149 -41 -160 -12 -60 -24 -125
-29 -160 -17 -121 -25 -178 -30 -221 -3 -27 -7 -65 -10 -84 -23 -199 -23 -570
0 -750 3 -19 7 -55 10 -80 19 -162 99 -460 163 -600 77 -170 146 -291 231
-405 25 -33 48 -62 51 -65 3 -3 13 -15 22 -28 66 -96 279 -277 439 -371 113
-67 316 -153 465 -196 102 -30 348 -80 444 -90 36 -4 79 -9 95 -11 136 -17
485 -23 640 -11 479 39 901 177 1310 430 77 47 270 188 339 247 493 422 847
952 1075 1615 43 123 100 319 116 393 2 9 12 55 23 102 28 117 71 379 78 470
4 41 8 78 10 81 7 12 17 249 17 382 -1 162 -11 312 -29 417 -2 14 -9 53 -14
87 -6 33 -21 105 -35 160 -115 444 -365 837 -690 1084 -190 144 -440 259 -706
324 -107 26 -257 54 -319 60 -19 2 -51 6 -71 9 -92 13 -551 29 -562 20z m186
-989 c53 -22 107 -99 122 -175 11 -51 18 -137 18 -210 0 -78 -10 -260 -17
-295 -2 -11 -7 -47 -10 -80 -4 -33 -9 -71 -11 -85 -5 -27 -9 -50 -20 -120 -3
-25 -15 -90 -26 -145 -10 -55 -20 -111 -23 -125 -2 -14 -23 -110 -46 -215 -23
-104 -44 -197 -45 -205 -13 -57 -167 -670 -199 -790 -145 -540 -269 -915 -377
-1138 -92 -189 -183 -308 -266 -347 -76 -37 -204 -10 -250 52 -43 60 -64 162
-64 323 -1 85 9 249 16 290 1 8 6 40 9 70 12 96 16 125 21 150 3 13 7 42 10
65 3 22 8 47 10 55 2 8 7 35 10 60 4 24 8 47 10 50 1 3 6 27 9 54 4 27 9 52
11 55 1 3 6 22 9 41 10 66 75 367 116 535 111 462 215 863 272 1045 112 362
191 577 266 720 161 306 304 424 445 365z"/>
</g>
</svg>
